<svg id="remote-car" enable-background="new 0 0 300 300" viewBox="0 0 300 300" xmlns="http://www.w3.org/2000/svg" xmlns:xlink="http://www.w3.org/1999/xlink"><linearGradient id="SVGID_1_" gradientUnits="userSpaceOnUse" x1="55.416" x2="240.774" y1="262.691" y2="77.332"><stop offset="0" stop-color="#107eff"/><stop offset="1" stop-color="#8f16ff"/></linearGradient><g><path d="m198.382 104v-8c0-2.209 1.789-4 4-4s4 1.791 4 4v8c0 2.209-1.789 4-4 4s-4-1.791-4-4zm4 12c-2.211 0-4 1.791-4 4v8c0 2.209 1.789 4 4 4s4-1.791 4-4v-8c0-2.209-1.789-4-4-4zm-16 0h8c2.211 0 4-1.791 4-4s-1.789-4-4-4h-8c-2.211 0-4 1.791-4 4s1.789 4 4 4zm20-4c0 2.209 1.789 4 4 4h8c2.211 0 4-1.791 4-4s-1.789-4-4-4h-8c-2.211 0-4 1.791-4 4zm2.96-55.776c2.362 0 4.276-1.915 4.276-4.276s-1.915-4.277-4.276-4.277-4.276 1.915-4.276 4.277 1.914 4.276 4.276 4.276zm60 92c2.362 0 4.276-1.915 4.276-4.276s-1.915-4.277-4.276-4.277-4.276 1.915-4.276 4.277 1.914 4.276 4.276 4.276zm2.778 55.485-5.816 29.076c-.375 1.869-2.016 3.215-3.922 3.215h-11.052c-5.349 11.776-17.196 20-30.948 20s-25.599-8.224-30.948-20h-86.104c-5.349 11.776-17.196 20-30.948 20s-25.599-8.224-30.948-20h-11.052c-2.211 0-4-1.791-4-4v-40c0-1.635.996-3.105 2.516-3.715l17.484-6.994v-29.291h-16c-2.211 0-4-1.791-4-4v-20c0-2.209 1.789-4 4-4h20c.543 0 1.078.109 1.574.324l28 12c1.473.629 2.426 2.076 2.426 3.676v8c0 2.209-1.789 4-4 4h-7.677l19.124 23.905.553-.968v-14.937c0-2.209 1.789-4 4-4h12v-60c-2.211 0-4-1.791-4-4s1.789-4 4-4h8c2.211 0 4 1.791 4 4s-1.789 4-4 4v60h40c1.258 0 2.445.592 3.199 1.6l22.801 30.4h14v-20c0-2.209 1.789-4 4-4h32.465c6.359 0 11.535 5.174 11.535 11.533v12.467h16.859c3.949 0 7.648 1.752 10.156 4.807 2.504 3.054 3.497 7.029 2.723 10.902zm-37.738 18.291c0-7.719-6.281-14-14-14s-14 6.281-14 14 6.281 14 14 14 14-6.281 14-14zm-32-34h32v-12.467c0-1.947-1.586-3.533-3.535-3.533h-28.465zm-152-44h12 12v-1.363l-24.82-10.637h-15.18v12zm22 44c3.377 0 6.635.511 9.717 1.433l3.46-6.056-25.099-31.377h-6.078v12h8c2.211 0 4 1.791 4 4s-1.789 4-4 4h-8v4h8c2.211 0 4 1.791 4 4s-1.789 4-4 4h-8c0 1.635-.996 3.105-2.516 3.715l-17.484 6.994v33.291h4.563c-.35-1.951-.563-3.95-.563-6 0-18.748 15.254-34 34-34zm14 34c0-7.719-6.281-14-14-14s-14 6.281-14 14 6.281 14 14 14 14-6.281 14-14zm100 0c0-10.425 4.726-19.758 12.137-26h-20.137c-1.258 0-2.445-.592-3.199-1.6l-22.801-30.4h-54v12c0 .695-.184 1.381-.527 1.984l-8.383 14.671c10.095 5.903 16.91 16.831 16.91 29.345 0 2.05-.213 4.049-.563 6h81.126c-.35-1.951-.563-3.95-.563-6zm76.828-24.121c-.98-1.193-2.426-1.879-3.969-1.879h-16.996c7.411 6.242 12.137 15.575 12.137 26 0 2.05-.213 4.049-.563 6h5.286l5.172-25.859c.3-1.514-.086-3.067-1.067-4.262zm-189.762-125.746c1.941 1.066 4.363.373 5.438-1.557 6.359-11.459 18.426-18.576 31.496-18.576s25.137 7.117 31.496 18.576c.73 1.316 2.094 2.059 3.5 2.059.656 0 1.32-.162 1.938-.502 1.93-1.072 2.629-3.506 1.555-5.439-7.766-13.999-22.512-22.694-38.489-22.694s-30.723 8.695-38.488 22.693c-1.075 1.934-.375 4.368 1.554 5.44zm58.114 4.64c.719 1.354 2.105 2.125 3.539 2.125.633 0 1.273-.15 1.871-.467 1.949-1.035 2.695-3.457 1.66-5.408-5.574-10.5-16.398-17.023-28.25-17.023s-22.676 6.521-28.25 17.021c-1.035 1.951-.293 4.373 1.66 5.408 1.953 1.031 4.375.293 5.41-1.658 4.18-7.876 12.293-12.771 21.18-12.771s17 4.895 21.18 12.773zm-21.18-8.773c-6.359 0-12.195 2.922-16.016 8.018-1.328 1.768-.969 4.275.801 5.6 1.77 1.33 4.277.969 5.598-.799 2.297-3.062 5.801-4.818 9.617-4.818s7.441 1.842 9.695 4.928c.785 1.072 2 1.641 3.234 1.641.816 0 1.645-.25 2.355-.77 1.785-1.305 2.172-3.807.871-5.59-3.757-5.142-9.796-8.21-16.155-8.21zm52 128h-52c-2.211 0-4-1.791-4-4v-20c0-2.209 1.789-4 4-4h36c1.215 0 2.363.553 3.125 1.502l16 20c.961 1.199 1.145 2.846.48 4.23-.668 1.387-2.066 2.268-3.605 2.268zm22.828 9.172c-1.562-1.562-4.094-1.562-5.656 0l-12 12c-1.562 1.562-1.562 4.094 0 5.656.781.781 1.805 1.172 2.828 1.172s2.047-.391 2.828-1.172l12-12c1.563-1.562 1.563-4.094 0-5.656zm-16 0c-1.562-1.562-4.094-1.562-5.656 0l-12 12c-1.562 1.562-1.562 4.094 0 5.656.781.781 1.805 1.172 2.828 1.172s2.047-.391 2.828-1.172l12-12c1.563-1.562 1.563-4.094 0-5.656z" fill="url(#SVGID_1_)"/></g><g/><g/><g/><g/><g/><g/><g/><g/><g/><g/><g/><g/><g/><g/><g/></svg>